<?xml version="1.0" standalone="no"?>
<!DOCTYPE svg PUBLIC "-//W3C//DTD SVG 20010904//EN"
 "http://www.w3.org/TR/2001/REC-SVG-20010904/DTD/svg10.dtd">
<svg version="1.0" xmlns="http://www.w3.org/2000/svg"
 width="450.000000pt" height="450.000000pt" viewBox="0 0 450.000000 450.000000"
 preserveAspectRatio="xMidYMid meet">
<metadata>
Created by potrace 1.14, written by Peter Selinger 2001-2017
</metadata>
<g transform="translate(0.000000,450.000000) scale(0.100000,-0.100000)"
fill="#000000" stroke="none">
<path d="M2015 4489 c-33 -5 -76 -11 -95 -13 -355 -50 -728 -207 -1025 -431
-159 -120 -343 -303 -440 -439 -11 -15 -34 -47 -51 -70 -78 -104 -199 -333
-258 -486 -61 -159 -107 -350 -131 -540 -15 -122 -13 -449 4 -555 6 -38 14
-86 17 -105 54 -337 232 -726 464 -1013 73 -91 223 -245 295 -302 28 -22 52
-43 55 -46 15 -17 167 -123 241 -167 146 -88 426 -211 539 -237 8 -2 53 -13
100 -24 175 -42 279 -54 485 -55 235 -1 314 5 483 40 212 44 373 99 562 194
137 69 187 100 340 213 316 232 585 580 730 942 18 44 36 89 40 100 34 83 80
266 106 424 19 112 26 432 13 561 -18 166 -87 465 -129 555 -5 11 -23 54 -40
95 -131 316 -372 638 -640 856 -83 68 -216 164 -227 164 -3 0 -20 11 -37 23
-60 46 -323 167 -456 211 -125 41 -270 76 -380 92 -25 3 -56 8 -70 10 -49 9
-436 11 -495 3z"/>
</g>
</svg>
